<?xml version="1.0" encoding="utf-8"?>
<!-- Generator: Adobe Illustrator 22.0.0, SVG Export Plug-In . SVG Version: 6.00 Build 0)  -->
<svg version="1.1" id="Layer_1" xmlns="http://www.w3.org/2000/svg" xmlns:xlink="http://www.w3.org/1999/xlink" x="0px" y="0px"
	 viewBox="0 0 77.5 75.2" style="enable-background:new 0 0 77.5 75.2;" xml:space="preserve">
<style type="text/css">
	.st0{fill:#EC6B58;}
	.st1{fill:#F6F6F6;}
	.st2{fill:#656567;}
</style>
<title>Artboard 1_1</title>
<g>
	<path class="st0" d="M65.4,15.6c0.2,1.5-0.9,2.8-2.4,3c-0.1,0-0.2,0-0.2,0c-1.5,0.2-2.9-0.8-3.2-2.3c0-0.2,0-0.5,0-0.7
		c0-1.5,1.2-2.8,2.7-2.8c0.1,0,0.1,0,0.2,0C64.3,12.9,65.2,13.9,65.4,15.6z"/>
	<path class="st0" d="M65.2,59.2c0.1,1.5-1.1,2.7-2.5,2.8c-0.1,0-0.2,0-0.3,0c-1.9,0.1-3.2-0.9-3.1-2.9c0.1-1.7,1.3-2.6,3-2.6
		c1.5-0.1,2.8,1,2.9,2.4C65.2,59.1,65.2,59.1,65.2,59.2z"/>
	<path class="st1" d="M56,19.9c-1.6,1-3.3,1.8-3.9,3.8C51.3,20.2,53.6,20,56,19.9z"/>
	<path class="st1" d="M52.1,23.7c0.6-2,2.4-2.8,3.9-3.8C55.3,21.6,53.8,23,52.1,23.7z"/>
	<path class="st2" d="M21.7,36.4c1.6,0,3.1,0.1,4.6,0l0.1,1.8c-1.6,0.1-3.3,0-5,0l0,0c-0.7,0.1-1.3,0.1-2,0
		c-4.7-1.2-7.1,2.1-8.2,5.3c-1,2.9,0.7,6.9,3.4,8.1c2.6,1.1,6,2.6,8.7,0.3l2.3,0.1c-0.4,0.4-0.7,0.7-1.1,1c-2.3,2.4-2.3,6.3,0.2,8.6
		c0.4,0.4,0.8,0.7,1.2,0.9c7.7,4.1,12.8,0.9,12.7-8.1c0-0.5,0-1,0-1.5c0-0.8,0-1.5,0-2.2h2c0,0.2,0,0.5,0,0.7c0.1,1.7,0.1,3.3,0,5
		c0,7,4,9.6,10.5,7.1c5.4-2.1,3.6-6.9,4.6-10.7h0.1c0,0,0,0,0-0.1c2-0.2,3.9-0.3,5.9-0.1c4.1,0.6,4.3-2.8,5.6-5s-0.2-3.4-1.3-5.3
		c-1.9-3.5-4.6-4-7.4-4.1l0.1-1.6c3.2,0.3,5.3-1.6,7.5-4.1c1.5-1.7,2.8-2.7,1.5-4.8s-1.1-4.5-4.7-5.5c-5.7-1.5-8.2,2.1-11.5,5
		L49.4,27c0.9-1.1,1.6-2.5,2.6-3.3c1.8-0.7,3.2-2.1,3.9-3.8c-0.2-1.3-0.8-2.7-0.6-3.8c0.8-3.2-1.4-4.1-3.6-4.9
		c-2.3-0.8-4.2-1.9-7.3-0.1c-2.4,1.2-3.8,3.7-3.7,6.4h-1.8c0-2.7-1.6-5.1-4.9-6.8s-9.1,1.1-10.3,4.5c-2.4,6.9,3.8,8.5,6.8,12.2
		c0.2,0.2,0.3,0.4,0.5,0.5l-2.4,0.3C26,25.5,21,21.6,20,21.6c-4.9,0.1-8.9,3.8-9,8.3c0,3.4,4.2,6.4,9.1,6.5L21.7,36.4L21.7,36.4z
		 M75.6,32.3c3.3,3.3,3.2,7.1-0.1,10.5c-4.2,4.3-7,9.2-6.4,15.5c0.5,5-3.3,8.1-8.6,7.6c-6.1-0.6-11.4,1.1-15.4,6.1
		c-3.3,4-8.7,3.8-11.9-0.4c-3.4-4.7-9.2-7.1-14.9-6c-5.7,0.9-10-3.4-8.4-8.9c0.8-3-2.5-11.7-5.1-13.3c-6.4-3.9-6.3-8.8,0.3-12.7
		c1.9-1.1,5.8-10.2,5.3-12.5c-1.4-7,2.1-10,9.2-9.2C24.8,9.5,30,7.5,33.4,3.5c4-4.5,8.6-4.6,12.6-0.2c3.7,4.2,9.2,6.4,14.7,5.8
		c5.3-0.4,9.2,2.4,8.6,7.5C69.6,22.6,71.3,28,75.6,32.3L75.6,32.3z M71.3,40.3c1.6-0.1,2.8-1.4,2.7-3c-0.1-1.5-1.5-2.7-3-2.6
		c0,0,0,0-0.1,0c-1.7,0-2.9,0.9-2.9,2.7c-0.1,1.5,1,2.8,2.5,2.9C70.8,40.4,71.1,40.4,71.3,40.3L71.3,40.3z M62.8,18.6
		c1.5,0,2.7-1.3,2.6-2.8c0-0.1,0-0.2,0-0.2c-0.3-1.7-1.1-2.8-2.9-2.7c-1.5-0.1-2.8,1.1-2.9,2.6c0,0.1,0,0.1,0,0.2
		c-0.1,1.5,1,2.9,2.6,3C62.4,18.7,62.6,18.7,62.8,18.6L62.8,18.6z M62.4,62c1.5,0.1,2.7-1,2.8-2.5c0-0.1,0-0.2,0-0.3
		c0-1.5-1.2-2.7-2.7-2.7c-0.1,0-0.1,0-0.2,0c-1.7,0-2.9,0.8-3,2.6C59.1,61.1,60.4,62.1,62.4,62L62.4,62z M42.7,6.6
		c0-1.7-1-2.7-2.9-2.8c-1.7,0.1-2.8,0.9-2.9,2.7c-0.2,1.4,0.8,2.6,2.2,2.8c0.2,0,0.4,0,0.6,0c1.5,0.2,2.8-0.9,3-2.3
		C42.7,6.9,42.7,6.8,42.7,6.6L42.7,6.6z M42.2,68.3c0.2-1.5-0.8-2.8-2.3-3c-0.1,0-0.2,0-0.3,0c-1.5-0.3-3,0.8-3.2,2.3
		c0,0.2,0,0.4,0,0.7c0,1.7,1.2,2.6,2.9,2.8C40.9,70.9,42,70.1,42.2,68.3L42.2,68.3z M17,18.1c1.5,0.1,2.8-1,2.9-2.6s-1-2.8-2.6-2.9
		c-0.2,0-0.3,0-0.5,0c-1.7-0.1-2.9,0.7-3,2.5C13.9,17.2,15,18.2,17,18.1z M16.7,61.8c1.5,0,2.6-1.2,2.6-2.7c0-0.1,0-0.2,0-0.3
		c-0.1-1.8-1.2-2.6-3.1-2.8c-1.3,0.4-2.7,1.1-2.7,2.8c-0.1,1.6,1.1,2.9,2.6,3C16.3,61.8,16.5,61.8,16.7,61.8L16.7,61.8z M7.3,39.9
		c1.5,0.1,2.8-1,2.9-2.5c0-0.1,0-0.1,0-0.2c0-1.7-1.4-3-3.1-2.9s-3,1.4-2.9,3.1c0,1.5,1.3,2.6,2.8,2.6C7,39.9,7.2,39.9,7.3,39.9
		L7.3,39.9z"/>
	<path class="st2" d="M40.9,22.6c-0.4,3,1,4.2,3.6,5.3s3.9,0.3,4.9-1l2.4,0.3l-0.6,0.5c-2.4,1.9-2.3,3.6-1.1,6.3
		c1.6,3.9,4.8,1.9,7.1,2.3c0.6,0.2,1.2,0.3,1.8,0.4L59,38.2c-1.4,0-2.8,0-4.2-0.1c-3.2-0.3-4.1,1.4-5.4,3.9
		c-1.4,2.8,0.7,3.5,1.8,4.9c1.6,2,4.4,3,4.9,6h-0.1c0,0,0,0,0,0.1c-3.2-0.2-4.5-3.1-6.5-4.9c-1.8-1.6-3-2.4-5.6-1.3
		c-2.2,0.9-3.2,2-3.2,4h-2c0.1-1.8-0.9-3.4-2.6-3.9c-3.5-1.6-5.2,0-7.2,2.1c-1,1.1-2.2,2-3.3,3.1l-2.3-0.1c0.5-0.5,1-1,1.4-1.6
		c1.1-1.6,2.9-2.7,4.3-4.2c0.9-1,2.8-1.8,1.3-3.6c-1.2-1.5-0.8-4.6-3.9-4.3l-0.1-1.8h0.3c1.8-0.1,4.6-4.6,3.9-6.3
		c-0.5-0.8-1.1-1.4-1.7-2l2.4-0.3c1.1,0.9,2.2,0.6,3.8,0.3c5-1,3.7-4.6,3.9-8.6c0.2-0.6,0.3-1.3,0.3-1.9H41
		C41.1,19.2,41,20.9,40.9,22.6z M46.8,37.6c0.2-3.6-3.1-6.8-7-6.8c-3.6-0.1-6.6,2.8-6.7,6.4c0,0,0,0,0,0c0,3.6,3,6.6,6.6,6.6
		C43.2,43.9,46.6,40.9,46.8,37.6L46.8,37.6z"/>
	<path class="st0" d="M20,15.3c0,1.6-1.4,2.8-2.9,2.8c-2,0.1-3.2-0.9-3.1-2.9c0.1-1.8,1.3-2.6,3-2.5C18.6,12.6,19.9,13.8,20,15.3z"
		/>
	<path class="st0" d="M19.3,58.8c0.2,1.5-0.8,2.8-2.3,3c-0.1,0-0.2,0-0.3,0c-1.5,0.2-3-0.9-3.2-2.4c0-0.2,0-0.4,0-0.6
		c0-1.7,1.4-2.4,2.7-2.8C18.1,56.2,19.2,57,19.3,58.8z"/>
</g>
</svg>
