<?xml version="1.0" encoding="utf-8"?>
<!-- Generator: Adobe Illustrator 22.0.0, SVG Export Plug-In . SVG Version: 6.00 Build 0)  -->
<svg version="1.1" id="Layer_1" xmlns="http://www.w3.org/2000/svg" xmlns:xlink="http://www.w3.org/1999/xlink" x="0px" y="0px"
	 viewBox="0 0 83 85.2" style="enable-background:new 0 0 83 85.2;" xml:space="preserve">
<style type="text/css">
	.st0{fill:#737373;}
	.st1{fill:#7B7B7B;}
	.st2{fill:#656567;}
	.st3{fill:#6D6D6E;}
	.st4{fill:#E4E4E5;}
	.st5{fill:#6E6E6F;}
	.st6{fill:#F3F2F3;}
	.st7{fill:#767576;}
	.st8{fill:#777777;}
	.st9{fill:#727172;}
	.st10{fill:#7A7A7A;}
	.st11{fill:#787879;}
	.st12{fill:#797979;}
	.st13{fill:#717172;}
	.st14{fill:#767676;}
	.st15{fill:#EC6B58;}
</style>
<title>Artboard 1_1</title>
<g>
	<path class="st0" d="M22.3,14.1l-2.1-0.8c2.6-4,7.6-5.9,8.6-11.5c0.4-2.4,3.6-2.4,5.4,0.1c1.2,3.5-0.2,5.4-3.7,6
		C27.3,9.3,25.6,12.7,22.3,14.1z"/>
	<path class="st1" d="M29.1,7c2.4-1,6.1-0.7,5.1-5.1c0.1,4.3,3.9,6.2,6.1,9.2l-1.2,1.2C35.2,11.6,32.5,8.6,29.1,7z"/>
	<path class="st2" d="M83.1,32.6c0-2.6-0.9-3.6-3.4-3.6c-4,0.1-8-0.2-12,0.1c-3.6,0.3-4.9-0.7-4.9-4.6c0.2-10.3,0-10.3-10.7-10.3
		c-4.2,0-8.7,1-11.9-3.1c-0.8-0.4-1.3,0.1-1.8,0.6h-0.1c0.2,0.2,0.4,0.4,0.7,0.5c1.3,2-0.1,2-1.5,2c-5.1,0-10.2-0.1-15.2-0.1
		c0.4-0.4,0.9-0.9,1.3-1.3h-0.4c-1-0.1-2,0.1-2.9,0.4c-5.2,2-10.5,0.7-15.8,0.9C1.2,14.1,0,14.9,0,18.3c0.2,12.7,0.2,25.3,0,38
		c-0.1,3.4,1.2,4.3,4.4,4.2c9-0.2,18,0.2,27-0.1c4.3-0.1,5.8,0.8,5.6,5.4c-0.4,9.2-0.1,9.2,8.6,9.9c0.3,0,0.5,0.4,0.9,0.7
		c-0.6,0.9-1.2,1.9-1.7,2.9c-0.7,1.8-4.2,3.5-1.5,5.3c2.5,1.7,3.1-2,4.5-3.4c1-1.1,1.8-2.4,2.6-3.7c0.8-1.3,2.2-2.1,3.7-2
		c7.5-0.1,15.7-2,19.3,7.7c0.1,0.1,0.2,0.3,0.3,0.4c0.7,1,1.7,2.1,2.9,1.3c1.4-0.9,0.7-2.3,0-3.5c-1.1-1.7-2.7-3.2-3.3-5.8
		c2.2,0,4-0.1,5.8,0c3,0.2,4.1-1,4-4.1C83,58.6,83,45.6,83.1,32.6z M36.9,41.4c0,3.2,0,6.3,0.1,9.5c-0.6,0.8-1.5,1.3-2.4,1.5
		c0.6,0.1,1.1,0.4,1.6,0.7c1.3,2.4,1.4,4.1-2.1,4.1c-9,0-18-0.1-27,0.1c-2.8,0-3.3-1.2-3.3-3.6c0.1-10.8,0.1-21.6,0-32.4
		c0-3,1.2-3.6,3.8-3.5c15.8,0.1,31.6,0.2,47.4,0.1c3.2,0,4.7,0.7,4.2,4.1c-0.1,0.6,0.2,1.4,0,2c-0.7,1.7,1.7,5-1.9,5.1
		c-3.3,0.1-1.8-2.9-1.9-4.6c-0.1-2.1-0.9-2.9-3-2.9c-13.8,0-27.6,0-41.4,0c-2.5,0-3,1.3-3,3.4C8,33.9,8.1,43.1,8.2,52.2h3.1
		c-1.1-0.4-1.8-1.5-1.6-2.6C9.9,40.8,9,32,10.2,23.2c13,0,26,0,38.9,0c2,0,4.4-0.7,4.4,2.9S51,29,49,29
		C36.9,29.3,36.9,29.3,36.9,41.4L36.9,41.4z M76.2,72.2c-11-0.1-22-0.1-33,0c-2.6,0-3-1.2-2.9-3.4c0-11,0.1-22-0.1-33
		c0-3.1,1.3-3.5,3.9-3.5c10.5,0.1,21,0.1,31.5,0c2.8,0,3.9,0.8,3.8,3.7c-0.2,5.5-0.1,11-0.1,16.5l0,0c0,5.5-0.1,11,0,16.5
		C79.4,71.3,78.6,72.2,76.2,72.2L76.2,72.2z"/>
	<path class="st3" d="M36.1,53.1c-8.3,0-16.6,0.1-25,0.1c-1,0-2.4,0.5-3-1c2-7.1,0.3-14.3,0.9-21.4c0.2-2.5-1-5.3,1-7.5
		C10,31.6,9.8,40,9.7,48.4c0,1.7,0.4,2.9,2.4,2.8c8.2-0.3,16.5,0.5,24.7-0.4C36.7,51.6,36.4,52.3,36.1,53.1z"/>
	<path class="st4" d="M32.9,3.6c-0.3,0.8-0.7,1.4-1.7,1.3c-0.6-0.1-1.1-0.6-1.1-1.3c0,0,0,0,0-0.1c0-0.9,0.6-1.4,1.6-1.3
		C32.4,2.4,32.9,2.9,32.9,3.6z"/>
	<path class="st5" d="M72.9,40.2c0.2,0.9,0.4,1.9,0.5,2.9c0.3,7.5-1.7,9-9.2,7.4c-1.3-0.3-2.2-0.8-2.1-2.2c0.2-2.7-0.6-5.6,0.6-8.2
		C66.1,39.4,69.6,39.5,72.9,40.2z"/>
	<path class="st6" d="M60.1,57.6l-0.1,0.1c3.5-1.7,6,0.9,5.8,5.9c-0.6,0.4-1.2,0.5-1.9,0.5c-2.1-0.2-4.7,1-5.9-1.3
		S59.5,59.4,60.1,57.6z"/>
	<path class="st7" d="M66,63.1c-1.7-2.2-1.7-6.2-6-5.3c-0.4-1.3,0.2-2.7,1.4-3.3c1.6-0.6,2.1,1.1,2.8,2.1c1.3,1.9,2.4,3.8,3.6,5.7
		c-0.4,1-0.1,2.6-2,2.1C65.7,63.9,65.7,63.4,66,63.1z"/>
	<path class="st8" d="M55.1,54.1c-6.5,1.9-8.5,0.8-8.8-4.9c0.4-1,1-1.6,2.1-0.9c0.9,2.7,3,3.8,5.7,4.2
		C54.8,52.8,55.3,53.2,55.1,54.1z"/>
	<path class="st9" d="M66.1,64.2l1.8-2c0.9,1.2,2.4,2.7-0.5,2.9c-3.6,0.3-7.2,0.3-10.8,0c-2.7-0.2-1.6-1.7-0.5-3
		C59,64.8,62.9,63,66.1,64.2z"/>
	<path class="st10" d="M66.1,64.2c-3.4-0.5-7.2,1.4-10-2c1-1.8,1.7-3.9,4-4.5c0.6,2-1.6,3.1-1.7,5.3c2.5,0.5,5.1,0.5,7.6,0.1
		C66.1,63.4,66.1,63.8,66.1,64.2z"/>
	<path class="st11" d="M55.1,54.1l-1.2-1c-0.1-2.1,0.9-4.1,0.7-6.2c0.4-0.6,0.8-1.1,1.6-0.7C58.2,49.1,58.2,51.8,55.1,54.1z"/>
	<path class="st12" d="M56.1,46.2L55,47.3c-1.7,0.6-3.6,0.2-5-0.9c-0.3-0.4-0.3-1,0.1-1.4C52.4,43.9,54.5,43.8,56.1,46.2z"/>
	<path class="st13" d="M72.9,40.2l-10.3-0.1C66,39,69.6,39,72.9,40.2z"/>
	<path class="st14" d="M50.1,45.1c0,0.3,0,0.6,0,1c0,1.2-1,2.1-2.1,2.1l-1.6,1C46.7,45.7,47.2,45.2,50.1,45.1z"/>
	<path class="st15" d="M67.2,41.4c3.1-0.5,4.6,0.4,4.7,3.6s-1.1,4-4.1,4c-2.6,0-4.1-0.5-3.8-3.5C64.2,43.1,63.5,40.3,67.2,41.4z"/>
	<path class="st15" d="M47.9,48.2l2.1-2.1c1.8-0.3,3.5,0.2,4.9,1.3c1,2,0.5,4.3-1.2,5.8C49.9,53.8,47.6,52.7,47.9,48.2z"/>
</g>
</svg>
