<?xml version="1.0" encoding="utf-8"?>
<!-- Generator: Adobe Illustrator 22.0.0, SVG Export Plug-In . SVG Version: 6.00 Build 0)  -->
<svg version="1.1" id="Layer_1" xmlns="http://www.w3.org/2000/svg" xmlns:xlink="http://www.w3.org/1999/xlink" x="0px" y="0px"
	 viewBox="0 0 93.1 61" style="enable-background:new 0 0 93.1 61;" xml:space="preserve">
<style type="text/css">
	.st0{fill:#EC6B58;}
	.st1{fill:#656567;}
	.st2{fill:#666569;}
	.st3{fill:#656466;}
	.st4{fill:#646465;}
</style>
<title>Artboard 1_1</title>
<g>
	<path class="st0" d="M84.1,27c2.8-0.1,3.9,0.7,3.8,3.6c-0.2,5.3-0.2,10.7,0,16c0.1,2.9-1,3.7-3.8,3.7c-9-0.1-18,0-27-0.1
		c-2.6,0-5.3-0.2-7.8,1.4V40c1.9,0.1,2.7,1.6,3.8,2.4c2.7,1.9,5.7,6.2,6.8-1.2c0.3-1.9,2.2-1.1,3.4-1.1c5-0.1,10,0,15-0.1
		c1.5,0,3.3,0.7,5.7-2c-7.6,0-14,0-20.4,0c-1.5,0-3.7,0.7-3.6-2s2.3-1.7,3.7-1.9c3.3-0.3,6.7,0.5,10-0.5c0-0.5,0-1,0-1.6
		c-3.5,0-7,0-10.5,0c-1.8,0-3.3-0.1-3.3-2.5c-0.1-2.6,1.6-2.4,3.3-2.4C70.1,27.1,77.1,27.2,84.1,27z"/>
	<path class="st1" d="M78.3,40c-5,0.1-10,0-15,0.1c-1.2,0-3.1-0.7-3.4,1.1c-1.1,7.4-4.1,3.1-6.8,1.2C52,41.5,51.3,40,49.3,40v11.7
		c2.5-1.5,5.2-1.4,7.8-1.4c9,0,18-0.1,27,0.1c2.8,0,3.9-0.8,3.8-3.7c-0.2-5.3-0.2-10.7,0-16c0.1-2.9-1.1-3.7-3.8-3.6
		c-7,0.1-14,0.1-21,0.1c-1.7,0-3.4-0.3-3.3,2.4c0,2.5,1.5,2.5,3.3,2.5c3.5-0.1,7,0,10.5,0c0,0.5,0,1,0,1.6c-3.2,1-6.7,0.2-10,0.5
		c-1.4,0.1-3.7-1-3.7,1.9s2.1,2,3.6,2c6.4,0.1,12.9,0,20.4,0C81.6,40.6,79.9,39.9,78.3,40z M85.5,23c4.6-0.1,6.7,2,6.6,6.6
		c-0.1,6,0,12-0.1,18c-0.1,5.4-1.3,6.6-6.9,6.7c-8.8,0.1-17.7,0.1-26.5-0.1c-3.5-0.1-6.5,0.5-9,3.2c-0.9,0.9-2,2-3.5,1.3
		s-1.3-2.2-1.3-3.5c0-4.2-0.1-8.3,0-12.5c0.1-2.9-1-3.7-3.8-3.7c-11.2,0.1-22.3,0.1-33.5,0c-6,0-7.6-1.7-7.7-7.8c-0.1-8-0.1-16,0-24
		C0,1.9,2,0.1,7.6,0c7.3-0.1,14.7,0,22,0c7.5,0,15-0.1,22.5,0c5.6,0.1,7.5,1.9,7.7,7.4c0.2,3.8,0.2,7.7,0,11.5
		c-0.3,3.5,1.2,4.2,4.3,4.1C71.2,22.9,78.4,23.1,85.5,23z M55.3,7.5c0-2.6-1-3.5-3.6-3.5C37.3,4.1,22.8,4.1,8.4,4
		c-3,0-4.2,1-4.1,4.1c0.1,7.3,0.3,14.6,0,21.9c-0.2,4.4,1.6,5.3,5.5,5.2c11.6-0.2,23.3-0.1,34.9-0.1c3.6,0,7.3-0.5,10.6,3.1
		C55.3,27.4,55.2,17.5,55.3,7.5z"/>
	<path class="st2" d="M42.7,15.9c0,0.6-0.1,1.1-0.1,1.7c-10.4,0.1-20.9,0.4-31.4-0.3c0-0.5,0-1,0-1.5H42.7z"/>
	<path class="st3" d="M36.2,21.3v1.6H11.5C19.8,20.7,28,21.6,36.2,21.3z"/>
	<path class="st4" d="M32,9.9V11H11.4V9.9H32z"/>
</g>
</svg>
