<?xml version="1.0" encoding="utf-8"?>
<!-- Generator: Adobe Illustrator 22.0.0, SVG Export Plug-In . SVG Version: 6.00 Build 0)  -->
<svg version="1.1" id="Layer_1" xmlns="http://www.w3.org/2000/svg" xmlns:xlink="http://www.w3.org/1999/xlink" x="0px" y="0px"
	 viewBox="0 0 63.8 83.1" style="enable-background:new 0 0 63.8 83.1;" xml:space="preserve">
<style type="text/css">
	.st0{fill:#E5E4E5;}
	.st1{fill:#666568;}
	.st2{fill:#F4F4F5;}
	.st3{fill:#686869;}
	.st4{fill:#99999A;}
	.st5{fill:#F9F9F9;}
	.st6{fill:#757476;}
	.st7{fill:#EC6B58;}
</style>
<title>Artboard 1_1</title>
<g>
	<path class="st0" d="M46.7,14.2c0.3,1-0.4,1.4-1.3,1.7c-1.2-0.2-2.2-1-2.5-2.1c-0.2-0.6,0.1-1.3,0.7-1.5c0.2-0.1,0.4-0.1,0.6-0.1
		C45.4,12.2,46.4,13,46.7,14.2z"/>
	<path class="st1" d="M42.9,13.8c0.4,1.1,1.4,1.9,2.5,2.1c0.8-0.3,1.5-0.7,1.3-1.7c-0.3-1.1-1.3-2-2.5-2c-0.7-0.1-1.3,0.4-1.3,1.1
		C42.8,13.4,42.9,13.6,42.9,13.8z M43.3,9.8c3.7-0.3,5.9,1.5,6.3,5.4c0.1,1.3,1.4,1.9,2.3,2.5c2.9,1.5,4.6,4.6,4.3,7.9
		C56,28.1,57,29.2,59.6,29c1.7-0.1,4.2-0.8,4.5,1.8c0.3,2.9,1.7,6.7-0.8,8.4c-2.8,1.9-2.4,3.8-2.4,6.2c0,10,0.1,20,0.1,30
		c0,6-1.8,7.6-7.9,7.6c-13.8,0-27.7,0-41.5,0c-5.8,0-7.3-1.6-7.4-7.4c-0.1-10.3,0-20.7,0-31c0-2,0.2-3.7-2.4-5.1
		c-3.1-1.8-1.5-5.8-1.2-8.7C1,28.2,3.5,28.9,5.2,29c4.1,0.3,7.6-0.1,10-4.4c1.8-3.2,5.3-5,9.1-5.6l8.3-0.1c4.6,0.5,8.6,3.2,10.9,7.2
		c2.3,4,5.6,3.1,8.7,2.7c2.2-0.3,1.2-2.8,1.2-4.3c-0.1-3.3-2.8-6-6.2-6.1c-3.6-0.3-6.3-0.8-6.9-4.7c-0.1-0.4-0.1-0.9,0-1.3
		C40.5,10.9,41.8,9.8,43.3,9.8L43.3,9.8z M56.7,35.8c1.2,0,3.1,0.5,2.9-1.5c-0.1-1.6-1.8-1.1-2.9-1.1c-8,0-16,0-24,0
		c-8.2,0-16.3,0-24.5,0C7,33.2,5,32.5,5,34.4s1.9,1.4,3.1,1.4C24.4,35.8,40.6,35.8,56.7,35.8L56.7,35.8z M56.5,43.5
		c0-3-1.1-3.6-3.8-3.5c-6.6,0.1-13.3,0-19.9,0c-6.8,0-13.6,0.1-20.5,0c-2.6-0.1-3.9,0.4-3.9,3.5c0.2,10.5,0.2,21,0,31.4
		c0,3.1,1,4.1,4.1,4.1c13.3-0.1,26.6-0.1,39.9,0c3,0,4.1-0.9,4-4C56.3,64.4,56.3,53.9,56.5,43.5L56.5,43.5z M40,28.3
		c0.5-1.2-0.6-1.8-1.3-2.4c-5.9-6.2-16.3-5-22,3c7.5,0,14.3,0,21.1,0C38.6,28.9,39.6,29.3,40,28.3z"/>
	<path class="st2" d="M37.8,28.9c-6.8,0-13.6,0-21.1,0c5.7-8.1,16.1-9.2,22-3c0.6,0.7,1.8,1.3,1.3,2.4
		C39.6,29.3,38.6,28.9,37.8,28.9z"/>
	<path class="st3" d="M37.8,7.2c0.3,1.5,0.3,3.1-0.1,4.7c-0.8,2.5-2.8,4.4-5.2,5.3c-0.9,0.2-1.9,0.4-2.8,0.6
		c-0.9-0.1-1.8-0.1-2.6,0.1l0,0c-0.7-0.1-1.4-0.3-2-0.6c-4.6-2-6.6-5.5-5.4-10.3c1.1-4.3,4.3-6.6,8.7-6.8C32.9-0.4,37,2.7,37.8,7.2z
		 M34.2,9.2c0.1-3.5-2.2-5.5-5.7-5.4c-3.3,0.1-5.3,1.9-5.2,5.3s2.1,4.9,5.4,5.2C31.9,14.1,34.2,12.5,34.2,9.2L34.2,9.2z"/>
	<path class="st4" d="M32.5,17.1c0,0.6,0.1,1.1,0.1,1.7c-0.5-0.3-1.1-0.6-1.7-0.8C31.5,17.7,32,17.4,32.5,17.1z"/>
	<path class="st1" d="M32.6,18.8l-8.3,0.1c0.6-0.3,1.3-0.6,2-0.9c1.4,0.7,3.2,0.7,4.6-0.1C31.5,18.2,32.1,18.4,32.6,18.8z"/>
	<path class="st3" d="M32.5,17.1c-0.5,0.3-1,0.6-1.6,0.9c-0.4-0.1-0.8-0.2-1.2-0.3C30.7,17.5,31.6,17.3,32.5,17.1z"/>
	<path class="st3" d="M29.7,17.7c0.4,0.1,0.8,0.1,1.2,0.3c-1.4,0.8-3.1,0.8-4.6,0.1c0.3-0.1,0.5-0.1,0.8-0.2l0,0
		C28,17.9,28.9,17.9,29.7,17.7z"/>
	<path class="st3" d="M27.1,17.8c0.9-0.2,1.8-0.2,2.6-0.1C28.9,17.9,28,17.9,27.1,17.8z"/>
	<path class="st3" d="M27.1,17.8c-0.2,0.1-0.5,0.1-0.8,0.2c-0.4-0.2-0.9-0.5-1.2-0.9C25.7,17.5,26.4,17.8,27.1,17.8z"/>
	<path class="st4" d="M25.1,17.2c0.4,0.3,0.8,0.6,1.2,0.9c-0.7,0.2-1.4,0.5-2,0.9L25.1,17.2z"/>
	<path class="st5" d="M41.6,49.9c-6.1,0-12.3,0-18.4,0c-0.8,0-1.8,0-1.7-1.2s0.9-1.2,1.8-1.2h8.9v0.1h9c0.9,0,2.2-0.3,2.2,1.2
		C43.4,50,42.3,49.9,41.6,49.9z"/>
	<path class="st6" d="M23.2,49.9c6.1,0,12.3,0,18.4,0c0.8,0,1.9,0.1,1.8-1.1c0-1.4-1.3-1.2-2.2-1.2h-9v-0.1h-8.9
		c-0.9,0-1.7,0.1-1.8,1.2S22.3,49.9,23.2,49.9z M22.8,44.8c6.6,0.1,13.3,0.1,19.9,0c2.6-0.1,4,0.5,3.9,3.5c-0.1,2.8-0.6,4.4-3.8,4.3
		c-3.5-0.1-7,0-10.5,0l0,0c-3.1,0-6.3-0.1-9.5,0c-2.8,0.1-4.7-0.3-4.7-4S19.9,44.8,22.8,44.8z"/>
	<path class="st7" d="M8.3,33.1c8.2-0.1,16.3,0,24.5,0c8,0,16,0,24,0c1.1,0,2.8-0.5,2.9,1.1c0.1,2.1-1.8,1.5-2.9,1.5
		c-16.2,0-32.3,0-48.5,0c-1.3,0-3.2,0.4-3.1-1.4S7.1,33.1,8.3,33.1z"/>
</g>
</svg>
