<?xml version="1.0" encoding="utf-8"?>
<!-- Generator: Adobe Illustrator 22.0.0, SVG Export Plug-In . SVG Version: 6.00 Build 0)  -->
<svg version="1.1" id="Layer_1" xmlns="http://www.w3.org/2000/svg" xmlns:xlink="http://www.w3.org/1999/xlink" x="0px" y="0px"
	 viewBox="0 0 84.2 72.1" style="enable-background:new 0 0 84.2 72.1;" xml:space="preserve">
<style type="text/css">
	.st0{fill:#F5F5F6;}
	.st1{fill:#EC6B58;}
	.st2{fill:#E6E6E7;}
	.st3{fill:#EAEAEC;}
	.st4{fill:#656567;}
	.st5{fill:#F7F8F8;}
	.st6{fill:#818181;}
</style>
<title>Artboard 1_1</title>
<g>
	<path class="st0" d="M78,44.7c0.6,0.6,1.3,1.2,0.6,2.1c-0.6,0.7-1.3,1.3-2,1.8c-1.2,0.2-1.7-0.6-2.2-1.1
		c-4.7-4.4-9.4-8.8-14.1-13.2c-1-0.9-2.1-1.6-0.6-3.1c1.2-1.1,2.1-2,3.6-0.4C68.1,35.5,73.1,40.1,78,44.7z"/>
	<path class="st1" d="M64.2,52.7c0,0.3,0,0.6,0,0.9H4.7v-0.9H64.2z"/>
	<path class="st2" d="M57.2,25.5c0.9,0.1,2,1,1.6,2c-0.5,1.2-1.6,2.1-2.9,2.4c-0.9-0.5-2-1.1-1.5-2.1S55.6,25.3,57.2,25.5z"/>
	<path class="st3" d="M50.9,21.1c1.3,0.4,2.9,0.5,3.2,2.3c-0.6,1.1-1.5,2.4-2.4,2.1c-1.5-0.3-2.2-1.8-2.4-3.3
		C49.2,21.1,50.1,20.9,50.9,21.1z"/>
	<path class="st4" d="M51.7,25.6c1,0.2,1.9-1,2.4-2.1c-0.3-1.8-1.9-1.9-3.2-2.3c-0.8-0.3-1.7,0-1.6,1.1
		C49.5,23.7,50.3,25.3,51.7,25.6z M55.9,29.9c1.3-0.2,2.4-1.1,2.9-2.4c0.4-1-0.7-1.9-1.6-2c-1.6-0.2-2.3,1.2-2.8,2.3
		S55,29.5,55.9,29.9z M77.9,44.7c-4.9-4.6-9.9-9.3-14.7-14c-1.6-1.6-2.5-0.6-3.6,0.4c-1.6,1.4-0.4,2.2,0.6,3.1
		c4.7,4.4,9.4,8.8,14.1,13.2c0.6,0.5,1,1.4,2.2,1.1c0.7-0.6,1.4-1.2,2-1.8C79.3,45.9,78.6,45.3,77.9,44.7L77.9,44.7z M79.2,42
		c1.1,0.8,2.1,1.7,3,2.7c2.3,2.2,3.4,4.8,0.9,7.4s-5.4,2.3-8-0.1c-3.3-3-6.5-6.1-9.9-9.3c-0.8,3.8-0.8,3.8,2.2,5.8
		c2.7,1.8,1.4,4.5,1.4,6.9c-0.1,2.5-2.1,2.6-4,2.6c-5.1,0-10.3,0-16.4,0c2.1,3.8,3.8,6.9,5.4,9.9c0.8,1.4,1.5,2.9-0.3,3.9
		c-1.5,0.8-2.7-0.3-3.1-1.6c-1.5-5-5.2-5.2-9.5-4.9c-3.5,0.2-7,0.2-10.5,0c-4.9-0.1-9.8-0.7-11.8,5.4c-0.3,1-1.3,1.6-2.3,1.4
		c-0.2-0.1-0.4-0.1-0.6-0.3c-1.6-0.9-1.1-2.2-0.4-3.4C17.2,65.2,19,62,21.2,58H4.3c-1.7,0-3.8,0.1-3.8-2.1c0-2.5-1.8-6.1,1.4-7.1
		c3.3-1.1,2.8-3.1,2.8-5.3c0-12.7,0.1-25.3-0.1-38C4.5,1.4,5.7-0.1,10,0c16.3,0.2,32.6,0.3,48.9,0c4.5-0.1,6.1,1.4,5.5,5.7
		c-0.1,1,0.2,2,0,3C61.4,23.3,67.3,34,79.2,42z M56.1,34.1c-3.5-2.7-7-5.6-9.1-9.8c-0.8-1.7-1.4-3.7-0.3-5.2
		c1.2-1.8,3.3-0.9,5.1-0.5c3.1,0.7,5.5,2.8,8.5,5.3c0-6.3-0.1-11.7,0-17.1c0-2.3-1.1-2.7-3-2.7c-15.1,0-30.3,0-45.4,0
		C9.8,4.1,9,4.8,9,7c0.1,12.8,0.1,25.6,0,38.4c0,2.2,0.8,2.9,2.9,2.9c15.1-0.1,30.3-0.1,45.4,0c2,0,2.9-0.5,3-2.8
		C60.6,41,60,37.2,56.1,34.1L56.1,34.1z M64.2,53.6c0-0.3,0-0.6,0-0.9H4.7v0.9H64.2z M42.5,61.4c0.8,0,2.2,0.4,2.1-1.2
		c0-1-0.8-1.9-1.8-2c-5.3-0.1-10.6-0.1-15.9,0c-1,0.1-1.8,1-1.8,2c-0.2,1.6,1.2,1.2,2,1.2c2.5,0.1,5,0,7.4,0l0,0
		C37.2,61.4,39.8,61.4,42.5,61.4L42.5,61.4z"/>
	<path class="st1" d="M42.8,25c1.4-0.1,2.6,1,2.7,2.4c0,0.1,0,0.2,0,0.3c-0.2,2.1-1.5,2.5-3.1,2.4c-1.3,0-2.4-1-2.5-2.4
		c0-0.1,0-0.1,0-0.2c-0.1-1.4,1-2.6,2.3-2.6C42.4,25,42.6,25,42.8,25z"/>
	<path class="st5" d="M44.5,60.2c0.1,1.6-1.3,1.2-2.1,1.2c-2.6,0.1-5.3,0-7.9,0l0,0c-2.5,0-5,0.1-7.4,0c-0.8,0-2.2,0.4-2-1.2
		c0-1,0.8-1.9,1.8-2c5.3,0,10.6-0.1,15.9,0C43.8,58.3,44.5,59.2,44.5,60.2z"/>
	<path class="st6" d="M36.2,27.3c0.1,1.5-1,2.8-2.4,2.9c-0.1,0-0.3,0-0.4,0c-1.4,0.2-2.7-0.7-2.9-2.1c0,0,0,0,0-0.1
		c-0.3-1.8,0.8-2.8,2.5-3C34.5,24.8,35.9,25.8,36.2,27.3z"/>
	<path class="st1" d="M26.8,27.5c-0.3,1.7-1.1,2.7-3,2.7s-2.8-1-2.7-2.8c0-1.3,1.1-2.4,2.4-2.4c0.1,0,0.1,0,0.2,0
		c1.5-0.2,2.9,0.8,3.1,2.3C26.8,27.4,26.8,27.5,26.8,27.5z"/>
</g>
</svg>
